# xmcd CD database file
#
# Track frame offsets:
#	150
#	12170
#	29135
#	45372
#	61690
#	72042
#	83442
#	100632
#	111495
#	127287
#	143145
#	159140
#	178552
#	197830
#	209775
#
# Disc length: 3012 seconds
#
# Revision: 2
# Processed by: cddbd v1.5.1PL0 Copyright (c) Steve Scherf et al.
# Submitted via: CDex 1.51
#
DISCID=cb0bc20f
DTITLE=Townes Van Zandt - Abnormal
DYEAR=1900
DGENRE=
TTITLE0=If I Needed You
TTITLE1=Pancho and Lefty
TTITLE2=Snake Mountain Blues
TTITLE3=Two Girls
TTITLE4=Kathleen (Into)
TTITLE5=Waiting Around To Die
TTITLE6=Tecumseh Vylley (Into)
TTITLE7=Dead Flowers
TTITLE8=Catfish Song (Into)
TTITLE9=Flying Shoes
TTITLE10=Blazes Blues
TTITLE11=Marie
TTITLE12=A Song For
TTITLE13=Lungs
TTITLE14=Old Shep
EXTD=
EXTT0=
EXTT1=
EXTT2=
EXTT3=
EXTT4=
EXTT5=
EXTT6=
EXTT7=
EXTT8=
EXTT9=
EXTT10=
EXTT11=
EXTT12=
EXTT13=
EXTT14=
PLAYORDER=
